<?xml version="1.0" encoding="UTF-8" standalone="no"?><!DOCTYPE svg PUBLIC "-//W3C//DTD SVG 1.1//EN" "http://www.w3.org/Graphics/SVG/1.1/DTD/svg11.dtd"><svg width="100%" height="100%" viewBox="0 0 1374 1434" version="1.1" xmlns="http://www.w3.org/2000/svg" xmlns:xlink="http://www.w3.org/1999/xlink" xml:space="preserve" xmlns:serif="http://www.serif.com/" style="fill-rule:evenodd;clip-rule:evenodd;stroke-linejoin:round;stroke-miterlimit:2;"><rect id="Pagina-1" serif:id="Pagina 1" x="0" y="0" width="1373.512" height="1433.931" style="fill:none;"/><g id="Livello-1" serif:id="Livello 1"><path d="M966.522,988.046l-353.507,0c-110.531,-9.981 -191.744,-78.095 -198.311,-186.813l0,-393.745l551.818,0l0,580.558Zm-557.565,-959.934l0,379.376l-390.871,0l-0.037,4.921l-1.986,282.636c-0.204,13.491 -0.309,26.968 -0.282,40.421l0,0.054c0.221,104.981 8.845,208.377 47.253,302.421c83.002,203.232 283.088,349.396 503.759,364.202c96.612,6.485 292.953,10.94 385.651,0.058c8.369,-0.983 14.783,-0.711 19.826,-8.913l0,-405.243l379.376,0l0,-959.934l-942.689,-0Z" style="fill:#1065e6;fill-rule:nonzero;"/></g></svg>