<svg xmlns="http://www.w3.org/2000/svg" viewBox="0 0 16 16" fill="currentColor"><path fill-rule="evenodd" clip-rule="evenodd" d="M3.5 0C2.67157 0 2 0.671573 2 1.5V14.5C2 15.3284 2.67157 16 3.5 16H12.5C13.3284 16 14 15.3284 14 14.5V4.41421C14 4.01639 13.842 3.63486 13.5607 3.35355L10.6464 0.43934C10.3651 0.158035 9.98361 0 9.58579 0H3.5ZM3.5 1.5H9V4.5C9 5.05228 9.44772 5.5 10 5.5H12.5V14.5H3.5V1.5ZM10.5 4V1.91421L12.0858 3.5H11C10.7239 3.5 10.5 3.27614 10.5 3V4ZM5.25 8H10.75V9.5H5.25V8ZM5.25 11H10.75V12.5H5.25V11Z"/></svg>
