<svg xmlns="http://www.w3.org/2000/svg" viewBox="0 0 16 16" fill="currentColor"><path fill-rule="evenodd" clip-rule="evenodd" d="M8.35355 0.646447C8.15829 0.451184 7.84171 0.451184 7.64645 0.646447L0.646447 7.64645C0.451184 7.84171 0.451184 8.15829 0.646447 8.35355C0.841709 8.54882 1.15829 8.54882 1.35355 8.35355L2 7.70711V13.5C2 14.3284 2.67157 15 3.5 15H6V10.5C6 10.2239 6.22386 10 6.5 10H9.5C9.77614 10 10 10.2239 10 10.5V15H12.5C13.3284 15 14 14.3284 14 13.5V7.70711L14.6464 8.35355C14.8417 8.54882 15.1583 8.54882 15.3536 8.35355C15.5488 8.15829 15.5488 7.84171 15.3536 7.64645L8.35355 0.646447ZM12.5 6.20711L8 1.70711L3.5 6.20711V13.5H5V10.5C5 9.67157 5.67157 9 6.5 9H9.5C10.3284 9 11 9.67157 11 10.5V13.5H12.5V6.20711Z"/></svg>
