<svg xmlns="http://www.w3.org/2000/svg" viewBox="0 0 16 16" fill="currentColor"><path fill-rule="evenodd" clip-rule="evenodd" d="M14.5 2.5H1.5V10.586L4.29289 7.79289C4.68342 7.40237 5.31658 7.40237 5.70711 7.79289L9 11.0858L10.2929 9.79289C10.6834 9.40237 11.3166 9.40237 11.7071 9.79289L14.5 12.586V2.5ZM1.5 1C0.671573 1 0 1.67157 0 2.5V13.5C0 14.3284 0.671573 15 1.5 15H14.5C15.3284 15 16 14.3284 16 13.5V2.5C16 1.67157 15.3284 1 14.5 1H1.5ZM14.5 13.5V14.0L11 10.5L9.70711 11.7929C9.31658 12.1834 8.68342 12.1834 8.29289 11.7929L5 8.5L1.5 12V13.5H14.5ZM10 5C10 5.55228 10.4477 6 11 6C11.5523 6 12 5.55228 12 5C12 4.44772 11.5523 4 11 4C10.4477 4 10 4.44772 10 5Z"/></svg>
