<svg xmlns="http://www.w3.org/2000/svg" viewBox="0 0 16 16" fill="currentColor"><path fill-rule="evenodd" clip-rule="evenodd" d="M2 1C1.44772 1 1 1.44772 1 2V7.17157C1 7.70201 1.21071 8.21071 1.58579 8.58579L7.41421 14.4142C8.19526 15.1953 9.46159 15.1953 10.2426 14.4142L14.4142 10.2426C15.1953 9.46159 15.1953 8.19526 14.4142 7.41421L8.58579 1.58579C8.21071 1.21071 7.70201 1 7.17157 1H2ZM2.5 7.17157V2.5H7.17157L13 8.32843L8.82843 12.5L2.5 7.17157ZM5 5.5C5.55228 5.5 6 5.05228 6 4.5C6 3.94772 5.55228 3.5 5 3.5C4.44772 3.5 4 3.94772 4 4.5C4 5.05228 4.44772 5.5 5 5.5Z"/></svg>
