<svg xmlns="http://www.w3.org/2000/svg" viewBox="0 0 16 16" fill="currentColor"><path fill-rule="evenodd" clip-rule="evenodd" d="M5.5 3.5C4.39543 3.5 3.5 4.39543 3.5 5.5C3.5 6.60457 4.39543 7.5 5.5 7.5C6.60457 7.5 7.5 6.60457 7.5 5.5C7.5 4.39543 6.60457 3.5 5.5 3.5ZM2 5.5C2 3.567 3.567 2 5.5 2C7.433 2 9 3.567 9 5.5C9 7.433 7.433 9 5.5 9C3.567 9 2 7.433 2 5.5ZM11.5 4C10.9477 4 10.5 4.44772 10.5 5C10.5 5.55228 10.9477 6 11.5 6C12.0523 6 12.5 5.55228 12.5 5C12.5 4.44772 12.0523 4 11.5 4ZM9 5C9 3.61929 10.1193 2.5 11.5 2.5C12.8807 2.5 14 3.61929 14 5C14 6.38071 12.8807 7.5 11.5 7.5C10.1193 7.5 9 6.38071 9 5ZM1.5 13.5C1.5 11.2909 3.29086 9.5 5.5 9.5C7.70914 9.5 9.5 11.2909 9.5 13.5V14H1.5V13.5ZM5.5 11C4.11929 11 3 12.1193 3 13.5H8C8 12.1193 6.88071 11 5.5 11ZM11.5 9C10.5 9 9.60997 9.46404 9.02997 10.1888L10.1648 11.0416C10.4636 10.6672 10.9467 10.5 11.5 10.5C12.6046 10.5 13.5 11.3954 13.5 12.5H11V14H15V12.5C15 10.567 13.433 9 11.5 9Z"/></svg>
